<?xml version="1.0" standalone="no"?>
<!DOCTYPE svg PUBLIC "-//W3C//DTD SVG 20010904//EN"
 "http://www.w3.org/TR/2001/REC-SVG-20010904/DTD/svg10.dtd">
<svg version="1.0" xmlns="http://www.w3.org/2000/svg"
 width="490.000000pt" height="490.000000pt" viewBox="0 0 490.000000 490.000000"
 preserveAspectRatio="xMidYMid meet">
<metadata>
Created by potrace 1.13, written by Peter Selinger 2001-2015
</metadata>
<g transform="translate(0.000000,490.000000) scale(0.100000,-0.100000)"
fill="#ffa000" stroke="none">
<path d="M2255 4889 c-659 -50 -1294 -385 -1707 -900 -215 -267 -383 -600
-468 -924 -194 -747 -19 -1554 468 -2154 393 -485 959 -801 1587 -886 163 -22
481 -22 640 -1 526 73 992 300 1374 671 396 385 637 855 723 1415 21 135 17
578 -5 715 -54 319 -161 617 -317 875 -419 696 -1127 1131 -1936 1190 -147 11
-205 11 -359 -1z m1043 -1001 c12 -25 7 -38 -64 -180 -94 -188 -108 -208 -141
-208 -32 0 -63 26 -63 52 0 23 153 329 176 352 26 26 76 17 92 -16z m-806
-395 l247 -247 63 22 c123 43 228 25 296 -52 57 -65 66 -149 27 -261 l-24 -70
235 -235 c232 -234 234 -236 234 -278 0 -32 -6 -49 -24 -67 -48 -48 -104 -45
-164 9 l-37 34 -110 -28 c-292 -76 -574 -202 -810 -363 -44 -30 -79 -60 -77
-67 2 -7 -18 -34 -43 -60 l-47 -48 188 -98 c440 -229 437 -227 461 -269 36
-64 30 -95 -50 -250 -83 -160 -108 -185 -188 -185 -43 0 -88 21 -431 199
l-382 200 -51 -48 c-54 -48 -107 -71 -166 -71 -71 1 -118 35 -313 228 -197
196 -236 248 -236 322 0 92 4 98 318 413 163 163 302 297 310 297 15 0 117
154 189 285 93 168 170 357 221 540 49 178 49 170 8 215 -29 32 -36 48 -36 81
0 50 12 74 48 94 63 35 77 25 344 -242z m1078 197 c38 -38 27 -57 -118 -203
-109 -109 -145 -139 -165 -139 -38 0 -57 19 -57 56 0 28 18 50 138 169 145
144 164 155 202 117z m214 -296 c20 -19 21 -68 2 -83 -30 -25 -342 -172 -360
-169 -29 4 -57 48 -49 77 5 19 41 41 177 107 94 46 181 84 193 84 12 0 29 -7
37 -16z"/>
<path d="M1322 1977 c-78 -79 -142 -151 -142 -161 0 -24 45 -66 71 -66 25 0
285 249 300 288 9 24 -3 60 -25 74 -37 25 -62 8 -204 -135z"/>
<path d="M1438 1862 c-96 -96 -138 -145 -138 -160 0 -27 42 -72 66 -72 10 0
82 64 161 142 114 114 143 148 143 169 0 36 -24 59 -63 59 -27 0 -50 -19 -169
-138z"/>
</g>
</svg>
